<?xml version="1.0" encoding="utf-8" standalone="no"?>
<!DOCTYPE svg PUBLIC "-//W3C//DTD SVG 1.1//EN"
  "http://www.w3.org/Graphics/SVG/1.1/DTD/svg11.dtd">
<svg xmlns:xlink="http://www.w3.org/1999/xlink" width="856.766875pt" height="495.034375pt" viewBox="0 0 856.766875 495.034375" xmlns="http://www.w3.org/2000/svg" version="1.1">
 <metadata>
  <rdf:RDF xmlns:dc="http://purl.org/dc/elements/1.1/" xmlns:cc="http://creativecommons.org/ns#" xmlns:rdf="http://www.w3.org/1999/02/22-rdf-syntax-ns#">
   <cc:Work>
    <dc:type rdf:resource="http://purl.org/dc/dcmitype/StillImage"/>
    <dc:date>2026-07-06T16:35:44.967446</dc:date>
    <dc:format>image/svg+xml</dc:format>
    <dc:creator>
     <cc:Agent>
      <dc:title>Matplotlib v3.10.8, https://matplotlib.org/</dc:title>
     </cc:Agent>
    </dc:creator>
   </cc:Work>
  </rdf:RDF>
 </metadata>
 <defs>
  <style type="text/css">*{stroke-linejoin: round; stroke-linecap: butt}</style>
 </defs>
 <g id="figure_1">
  <g id="patch_1">
   <path d="M 0 495.034375 
L 856.766875 495.034375 
L 856.766875 0 
L 0 0 
z
" style="fill: #ffffff"/>
  </g>
  <g id="axes_1">
   <g id="patch_2">
    <path d="M 36.846875 457.478125 
L 650.079816 457.478125 
L 650.079816 22.318125 
L 36.846875 22.318125 
z
" style="fill: #ffffff"/>
   </g>
   <g id="matplotlib.axis_1">
    <g id="xtick_1">
     <g id="line2d_1">
      <path d="M 36.846875 457.478125 
L 36.846875 22.318125 
" clip-path="url(#p7ab81cf7f5)" style="fill: none; stroke: #b0b0b0; stroke-opacity: 0.2; stroke-width: 0.8; stroke-linecap: square"/>
     </g>
     <g id="line2d_2">
      <defs>
       <path id="mf86f6de5de" d="M 0 0 
L 0 3.5 
" style="stroke: #000000; stroke-width: 0.8"/>
      </defs>
      <g>
       <use xlink:href="#mf86f6de5de" x="36.846875" y="457.478125" style="stroke: #000000; stroke-width: 0.8"/>
      </g>
     </g>
     <g id="text_1">
      <!-- 0 -->
      <g transform="translate(33.665625 472.076563) scale(0.1 -0.1)">
       <defs>
        <path id="DejaVuSans-30" d="M 2034 4250 
Q 1547 4250 1301 3770 
Q 1056 3291 1056 2328 
Q 1056 1369 1301 889 
Q 1547 409 2034 409 
Q 2525 409 2770 889 
Q 3016 1369 3016 2328 
Q 3016 3291 2770 3770 
Q 2525 4250 2034 4250 
z
M 2034 4750 
Q 2819 4750 3233 4129 
Q 3647 3509 3647 2328 
Q 3647 1150 3233 529 
Q 2819 -91 2034 -91 
Q 1250 -91 836 529 
Q 422 1150 422 2328 
Q 422 3509 836 4129 
Q 1250 4750 2034 4750 
z
" transform="scale(0.015625)"/>
       </defs>
       <use xlink:href="#DejaVuSans-30"/>
      </g>
     </g>
    </g>
    <g id="xtick_2">
     <g id="line2d_3">
      <path d="M 169.581278 457.478125 
L 169.581278 22.318125 
" clip-path="url(#p7ab81cf7f5)" style="fill: none; stroke: #b0b0b0; stroke-opacity: 0.2; stroke-width: 0.8; stroke-linecap: square"/>
     </g>
     <g id="line2d_4">
      <g>
       <use xlink:href="#mf86f6de5de" x="169.581278" y="457.478125" style="stroke: #000000; stroke-width: 0.8"/>
      </g>
     </g>
     <g id="text_2">
      <!-- 5 -->
      <g transform="translate(166.400028 472.076563) scale(0.1 -0.1)">
       <defs>
        <path id="DejaVuSans-35" d="M 691 4666 
L 3169 4666 
L 3169 4134 
L 1269 4134 
L 1269 2991 
Q 1406 3038 1543 3061 
Q 1681 3084 1819 3084 
Q 2600 3084 3056 2656 
Q 3513 2228 3513 1497 
Q 3513 744 3044 326 
Q 2575 -91 1722 -91 
Q 1428 -91 1123 -41 
Q 819 9 494 109 
L 494 744 
Q 775 591 1075 516 
Q 1375 441 1709 441 
Q 2250 441 2565 725 
Q 2881 1009 2881 1497 
Q 2881 1984 2565 2268 
Q 2250 2553 1709 2553 
Q 1456 2553 1204 2497 
Q 953 2441 691 2322 
L 691 4666 
z
" transform="scale(0.015625)"/>
       </defs>
       <use xlink:href="#DejaVuSans-35"/>
      </g>
     </g>
    </g>
    <g id="xtick_3">
     <g id="line2d_5">
      <path d="M 302.315681 457.478125 
L 302.315681 22.318125 
" clip-path="url(#p7ab81cf7f5)" style="fill: none; stroke: #b0b0b0; stroke-opacity: 0.2; stroke-width: 0.8; stroke-linecap: square"/>
     </g>
     <g id="line2d_6">
      <g>
       <use xlink:href="#mf86f6de5de" x="302.315681" y="457.478125" style="stroke: #000000; stroke-width: 0.8"/>
      </g>
     </g>
     <g id="text_3">
      <!-- 10 -->
      <g transform="translate(295.953181 472.076563) scale(0.1 -0.1)">
       <defs>
        <path id="DejaVuSans-31" d="M 794 531 
L 1825 531 
L 1825 4091 
L 703 3866 
L 703 4441 
L 1819 4666 
L 2450 4666 
L 2450 531 
L 3481 531 
L 3481 0 
L 794 0 
L 794 531 
z
" transform="scale(0.015625)"/>
       </defs>
       <use xlink:href="#DejaVuSans-31"/>
       <use xlink:href="#DejaVuSans-30" transform="translate(63.623047 0)"/>
      </g>
     </g>
    </g>
    <g id="xtick_4">
     <g id="line2d_7">
      <path d="M 435.050084 457.478125 
L 435.050084 22.318125 
" clip-path="url(#p7ab81cf7f5)" style="fill: none; stroke: #b0b0b0; stroke-opacity: 0.2; stroke-width: 0.8; stroke-linecap: square"/>
     </g>
     <g id="line2d_8">
      <g>
       <use xlink:href="#mf86f6de5de" x="435.050084" y="457.478125" style="stroke: #000000; stroke-width: 0.8"/>
      </g>
     </g>
     <g id="text_4">
      <!-- 15 -->
      <g transform="translate(428.687584 472.076563) scale(0.1 -0.1)">
       <use xlink:href="#DejaVuSans-31"/>
       <use xlink:href="#DejaVuSans-35" transform="translate(63.623047 0)"/>
      </g>
     </g>
    </g>
    <g id="xtick_5">
     <g id="line2d_9">
      <path d="M 567.784486 457.478125 
L 567.784486 22.318125 
" clip-path="url(#p7ab81cf7f5)" style="fill: none; stroke: #b0b0b0; stroke-opacity: 0.2; stroke-width: 0.8; stroke-linecap: square"/>
     </g>
     <g id="line2d_10">
      <g>
       <use xlink:href="#mf86f6de5de" x="567.784486" y="457.478125" style="stroke: #000000; stroke-width: 0.8"/>
      </g>
     </g>
     <g id="text_5">
      <!-- 20 -->
      <g transform="translate(561.421986 472.076563) scale(0.1 -0.1)">
       <defs>
        <path id="DejaVuSans-32" d="M 1228 531 
L 3431 531 
L 3431 0 
L 469 0 
L 469 531 
Q 828 903 1448 1529 
Q 2069 2156 2228 2338 
Q 2531 2678 2651 2914 
Q 2772 3150 2772 3378 
Q 2772 3750 2511 3984 
Q 2250 4219 1831 4219 
Q 1534 4219 1204 4116 
Q 875 4013 500 3803 
L 500 4441 
Q 881 4594 1212 4672 
Q 1544 4750 1819 4750 
Q 2544 4750 2975 4387 
Q 3406 4025 3406 3419 
Q 3406 3131 3298 2873 
Q 3191 2616 2906 2266 
Q 2828 2175 2409 1742 
Q 1991 1309 1228 531 
z
" transform="scale(0.015625)"/>
       </defs>
       <use xlink:href="#DejaVuSans-32"/>
       <use xlink:href="#DejaVuSans-30" transform="translate(63.623047 0)"/>
      </g>
     </g>
    </g>
    <g id="text_6">
     <!-- Playoff Games -->
     <g transform="translate(307.377408 485.754688) scale(0.1 -0.1)">
      <defs>
       <path id="DejaVuSans-50" d="M 1259 4147 
L 1259 2394 
L 2053 2394 
Q 2494 2394 2734 2622 
Q 2975 2850 2975 3272 
Q 2975 3691 2734 3919 
Q 2494 4147 2053 4147 
L 1259 4147 
z
M 628 4666 
L 2053 4666 
Q 2838 4666 3239 4311 
Q 3641 3956 3641 3272 
Q 3641 2581 3239 2228 
Q 2838 1875 2053 1875 
L 1259 1875 
L 1259 0 
L 628 0 
L 628 4666 
z
" transform="scale(0.015625)"/>
       <path id="DejaVuSans-6c" d="M 603 4863 
L 1178 4863 
L 1178 0 
L 603 0 
L 603 4863 
z
" transform="scale(0.015625)"/>
       <path id="DejaVuSans-61" d="M 2194 1759 
Q 1497 1759 1228 1600 
Q 959 1441 959 1056 
Q 959 750 1161 570 
Q 1363 391 1709 391 
Q 2188 391 2477 730 
Q 2766 1069 2766 1631 
L 2766 1759 
L 2194 1759 
z
M 3341 1997 
L 3341 0 
L 2766 0 
L 2766 531 
Q 2569 213 2275 61 
Q 1981 -91 1556 -91 
Q 1019 -91 701 211 
Q 384 513 384 1019 
Q 384 1609 779 1909 
Q 1175 2209 1959 2209 
L 2766 2209 
L 2766 2266 
Q 2766 2663 2505 2880 
Q 2244 3097 1772 3097 
Q 1472 3097 1187 3025 
Q 903 2953 641 2809 
L 641 3341 
Q 956 3463 1253 3523 
Q 1550 3584 1831 3584 
Q 2591 3584 2966 3190 
Q 3341 2797 3341 1997 
z
" transform="scale(0.015625)"/>
       <path id="DejaVuSans-79" d="M 2059 -325 
Q 1816 -950 1584 -1140 
Q 1353 -1331 966 -1331 
L 506 -1331 
L 506 -850 
L 844 -850 
Q 1081 -850 1212 -737 
Q 1344 -625 1503 -206 
L 1606 56 
L 191 3500 
L 800 3500 
L 1894 763 
L 2988 3500 
L 3597 3500 
L 2059 -325 
z
" transform="scale(0.015625)"/>
       <path id="DejaVuSans-6f" d="M 1959 3097 
Q 1497 3097 1228 2736 
Q 959 2375 959 1747 
Q 959 1119 1226 758 
Q 1494 397 1959 397 
Q 2419 397 2687 759 
Q 2956 1122 2956 1747 
Q 2956 2369 2687 2733 
Q 2419 3097 1959 3097 
z
M 1959 3584 
Q 2709 3584 3137 3096 
Q 3566 2609 3566 1747 
Q 3566 888 3137 398 
Q 2709 -91 1959 -91 
Q 1206 -91 779 398 
Q 353 888 353 1747 
Q 353 2609 779 3096 
Q 1206 3584 1959 3584 
z
" transform="scale(0.015625)"/>
       <path id="DejaVuSans-66" d="M 2375 4863 
L 2375 4384 
L 1825 4384 
Q 1516 4384 1395 4259 
Q 1275 4134 1275 3809 
L 1275 3500 
L 2222 3500 
L 2222 3053 
L 1275 3053 
L 1275 0 
L 697 0 
L 697 3053 
L 147 3053 
L 147 3500 
L 697 3500 
L 697 3744 
Q 697 4328 969 4595 
Q 1241 4863 1831 4863 
L 2375 4863 
z
" transform="scale(0.015625)"/>
       <path id="DejaVuSans-20" transform="scale(0.015625)"/>
       <path id="DejaVuSans-47" d="M 3809 666 
L 3809 1919 
L 2778 1919 
L 2778 2438 
L 4434 2438 
L 4434 434 
Q 4069 175 3628 42 
Q 3188 -91 2688 -91 
Q 1594 -91 976 548 
Q 359 1188 359 2328 
Q 359 3472 976 4111 
Q 1594 4750 2688 4750 
Q 3144 4750 3555 4637 
Q 3966 4525 4313 4306 
L 4313 3634 
Q 3963 3931 3569 4081 
Q 3175 4231 2741 4231 
Q 1884 4231 1454 3753 
Q 1025 3275 1025 2328 
Q 1025 1384 1454 906 
Q 1884 428 2741 428 
Q 3075 428 3337 486 
Q 3600 544 3809 666 
z
" transform="scale(0.015625)"/>
       <path id="DejaVuSans-6d" d="M 3328 2828 
Q 3544 3216 3844 3400 
Q 4144 3584 4550 3584 
Q 5097 3584 5394 3201 
Q 5691 2819 5691 2113 
L 5691 0 
L 5113 0 
L 5113 2094 
Q 5113 2597 4934 2840 
Q 4756 3084 4391 3084 
Q 3944 3084 3684 2787 
Q 3425 2491 3425 1978 
L 3425 0 
L 2847 0 
L 2847 2094 
Q 2847 2600 2669 2842 
Q 2491 3084 2119 3084 
Q 1678 3084 1418 2786 
Q 1159 2488 1159 1978 
L 1159 0 
L 581 0 
L 581 3500 
L 1159 3500 
L 1159 2956 
Q 1356 3278 1631 3431 
Q 1906 3584 2284 3584 
Q 2666 3584 2933 3390 
Q 3200 3197 3328 2828 
z
" transform="scale(0.015625)"/>
       <path id="DejaVuSans-65" d="M 3597 1894 
L 3597 1613 
L 953 1613 
Q 991 1019 1311 708 
Q 1631 397 2203 397 
Q 2534 397 2845 478 
Q 3156 559 3463 722 
L 3463 178 
Q 3153 47 2828 -22 
Q 2503 -91 2169 -91 
Q 1331 -91 842 396 
Q 353 884 353 1716 
Q 353 2575 817 3079 
Q 1281 3584 2069 3584 
Q 2775 3584 3186 3129 
Q 3597 2675 3597 1894 
z
M 3022 2063 
Q 3016 2534 2758 2815 
Q 2500 3097 2075 3097 
Q 1594 3097 1305 2825 
Q 1016 2553 972 2059 
L 3022 2063 
z
" transform="scale(0.015625)"/>
       <path id="DejaVuSans-73" d="M 2834 3397 
L 2834 2853 
Q 2591 2978 2328 3040 
Q 2066 3103 1784 3103 
Q 1356 3103 1142 2972 
Q 928 2841 928 2578 
Q 928 2378 1081 2264 
Q 1234 2150 1697 2047 
L 1894 2003 
Q 2506 1872 2764 1633 
Q 3022 1394 3022 966 
Q 3022 478 2636 193 
Q 2250 -91 1575 -91 
Q 1294 -91 989 -36 
Q 684 19 347 128 
L 347 722 
Q 666 556 975 473 
Q 1284 391 1588 391 
Q 1994 391 2212 530 
Q 2431 669 2431 922 
Q 2431 1156 2273 1281 
Q 2116 1406 1581 1522 
L 1381 1569 
Q 847 1681 609 1914 
Q 372 2147 372 2553 
Q 372 3047 722 3315 
Q 1072 3584 1716 3584 
Q 2034 3584 2315 3537 
Q 2597 3491 2834 3397 
z
" transform="scale(0.015625)"/>
      </defs>
      <use xlink:href="#DejaVuSans-50"/>
      <use xlink:href="#DejaVuSans-6c" transform="translate(60.302734 0)"/>
      <use xlink:href="#DejaVuSans-61" transform="translate(88.085938 0)"/>
      <use xlink:href="#DejaVuSans-79" transform="translate(149.365234 0)"/>
      <use xlink:href="#DejaVuSans-6f" transform="translate(208.544922 0)"/>
      <use xlink:href="#DejaVuSans-66" transform="translate(269.726562 0)"/>
      <use xlink:href="#DejaVuSans-66" transform="translate(304.931641 0)"/>
      <use xlink:href="#DejaVuSans-20" transform="translate(340.136719 0)"/>
      <use xlink:href="#DejaVuSans-47" transform="translate(371.923828 0)"/>
      <use xlink:href="#DejaVuSans-61" transform="translate(449.414062 0)"/>
      <use xlink:href="#DejaVuSans-6d" transform="translate(510.693359 0)"/>
      <use xlink:href="#DejaVuSans-65" transform="translate(608.105469 0)"/>
      <use xlink:href="#DejaVuSans-73" transform="translate(669.628906 0)"/>
     </g>
    </g>
   </g>
   <g id="matplotlib.axis_2">
    <g id="ytick_1">
     <g id="line2d_11">
      <path d="M 36.846875 50.917233 
L 650.079816 50.917233 
" clip-path="url(#p7ab81cf7f5)" style="fill: none; stroke: #b0b0b0; stroke-opacity: 0.3; stroke-width: 0.8; stroke-linecap: square"/>
     </g>
     <g id="line2d_12">
      <defs>
       <path id="m18ec20c041" d="M 0 0 
L -3.5 0 
" style="stroke: #000000; stroke-width: 0.8"/>
      </defs>
      <g>
       <use xlink:href="#m18ec20c041" x="36.846875" y="50.917233" style="stroke: #000000; stroke-width: 0.8"/>
      </g>
     </g>
     <g id="text_7">
      <!-- COL -->
      <g transform="translate(9.420313 54.716452) scale(0.1 -0.1)">
       <defs>
        <path id="DejaVuSans-43" d="M 4122 4306 
L 4122 3641 
Q 3803 3938 3442 4084 
Q 3081 4231 2675 4231 
Q 1875 4231 1450 3742 
Q 1025 3253 1025 2328 
Q 1025 1406 1450 917 
Q 1875 428 2675 428 
Q 3081 428 3442 575 
Q 3803 722 4122 1019 
L 4122 359 
Q 3791 134 3420 21 
Q 3050 -91 2638 -91 
Q 1578 -91 968 557 
Q 359 1206 359 2328 
Q 359 3453 968 4101 
Q 1578 4750 2638 4750 
Q 3056 4750 3426 4639 
Q 3797 4528 4122 4306 
z
" transform="scale(0.015625)"/>
        <path id="DejaVuSans-4f" d="M 2522 4238 
Q 1834 4238 1429 3725 
Q 1025 3213 1025 2328 
Q 1025 1447 1429 934 
Q 1834 422 2522 422 
Q 3209 422 3611 934 
Q 4013 1447 4013 2328 
Q 4013 3213 3611 3725 
Q 3209 4238 2522 4238 
z
M 2522 4750 
Q 3503 4750 4090 4092 
Q 4678 3434 4678 2328 
Q 4678 1225 4090 567 
Q 3503 -91 2522 -91 
Q 1538 -91 948 565 
Q 359 1222 359 2328 
Q 359 3434 948 4092 
Q 1538 4750 2522 4750 
z
" transform="scale(0.015625)"/>
        <path id="DejaVuSans-4c" d="M 628 4666 
L 1259 4666 
L 1259 531 
L 3531 531 
L 3531 0 
L 628 0 
L 628 4666 
z
" transform="scale(0.015625)"/>
       </defs>
       <use xlink:href="#DejaVuSans-43"/>
       <use xlink:href="#DejaVuSans-4f" transform="translate(69.824219 0)"/>
       <use xlink:href="#DejaVuSans-4c" transform="translate(148.535156 0)"/>
      </g>
     </g>
    </g>
    <g id="ytick_2">
     <g id="line2d_13">
      <path d="M 36.846875 76.114686 
L 650.079816 76.114686 
" clip-path="url(#p7ab81cf7f5)" style="fill: none; stroke: #b0b0b0; stroke-opacity: 0.3; stroke-width: 0.8; stroke-linecap: square"/>
     </g>
     <g id="line2d_14">
      <g>
       <use xlink:href="#m18ec20c041" x="36.846875" y="76.114686" style="stroke: #000000; stroke-width: 0.8"/>
      </g>
     </g>
     <g id="text_8">
      <!-- BUF -->
      <g transform="translate(9.915625 79.913904) scale(0.1 -0.1)">
       <defs>
        <path id="DejaVuSans-42" d="M 1259 2228 
L 1259 519 
L 2272 519 
Q 2781 519 3026 730 
Q 3272 941 3272 1375 
Q 3272 1813 3026 2020 
Q 2781 2228 2272 2228 
L 1259 2228 
z
M 1259 4147 
L 1259 2741 
L 2194 2741 
Q 2656 2741 2882 2914 
Q 3109 3088 3109 3444 
Q 3109 3797 2882 3972 
Q 2656 4147 2194 4147 
L 1259 4147 
z
M 628 4666 
L 2241 4666 
Q 2963 4666 3353 4366 
Q 3744 4066 3744 3513 
Q 3744 3084 3544 2831 
Q 3344 2578 2956 2516 
Q 3422 2416 3680 2098 
Q 3938 1781 3938 1306 
Q 3938 681 3513 340 
Q 3088 0 2303 0 
L 628 0 
L 628 4666 
z
" transform="scale(0.015625)"/>
        <path id="DejaVuSans-55" d="M 556 4666 
L 1191 4666 
L 1191 1831 
Q 1191 1081 1462 751 
Q 1734 422 2344 422 
Q 2950 422 3222 751 
Q 3494 1081 3494 1831 
L 3494 4666 
L 4128 4666 
L 4128 1753 
Q 4128 841 3676 375 
Q 3225 -91 2344 -91 
Q 1459 -91 1007 375 
Q 556 841 556 1753 
L 556 4666 
z
" transform="scale(0.015625)"/>
        <path id="DejaVuSans-46" d="M 628 4666 
L 3309 4666 
L 3309 4134 
L 1259 4134 
L 1259 2759 
L 3109 2759 
L 3109 2228 
L 1259 2228 
L 1259 0 
L 628 0 
L 628 4666 
z
" transform="scale(0.015625)"/>
       </defs>
       <use xlink:href="#DejaVuSans-42"/>
       <use xlink:href="#DejaVuSans-55" transform="translate(68.603516 0)"/>
       <use xlink:href="#DejaVuSans-46" transform="translate(141.796875 0)"/>
      </g>
     </g>
    </g>
    <g id="ytick_3">
     <g id="line2d_15">
      <path d="M 36.846875 101.312138 
L 650.079816 101.312138 
" clip-path="url(#p7ab81cf7f5)" style="fill: none; stroke: #b0b0b0; stroke-opacity: 0.3; stroke-width: 0.8; stroke-linecap: square"/>
     </g>
     <g id="line2d_16">
      <g>
       <use xlink:href="#m18ec20c041" x="36.846875" y="101.312138" style="stroke: #000000; stroke-width: 0.8"/>
      </g>
     </g>
     <g id="text_9">
      <!-- CAR -->
      <g transform="translate(9.075 105.111356) scale(0.1 -0.1)">
       <defs>
        <path id="DejaVuSans-41" d="M 2188 4044 
L 1331 1722 
L 3047 1722 
L 2188 4044 
z
M 1831 4666 
L 2547 4666 
L 4325 0 
L 3669 0 
L 3244 1197 
L 1141 1197 
L 716 0 
L 50 0 
L 1831 4666 
z
" transform="scale(0.015625)"/>
        <path id="DejaVuSans-52" d="M 2841 2188 
Q 3044 2119 3236 1894 
Q 3428 1669 3622 1275 
L 4263 0 
L 3584 0 
L 2988 1197 
Q 2756 1666 2539 1819 
Q 2322 1972 1947 1972 
L 1259 1972 
L 1259 0 
L 628 0 
L 628 4666 
L 2053 4666 
Q 2853 4666 3247 4331 
Q 3641 3997 3641 3322 
Q 3641 2881 3436 2590 
Q 3231 2300 2841 2188 
z
M 1259 4147 
L 1259 2491 
L 2053 2491 
Q 2509 2491 2742 2702 
Q 2975 2913 2975 3322 
Q 2975 3731 2742 3939 
Q 2509 4147 2053 4147 
L 1259 4147 
z
" transform="scale(0.015625)"/>
       </defs>
       <use xlink:href="#DejaVuSans-43"/>
       <use xlink:href="#DejaVuSans-41" transform="translate(69.824219 0)"/>
       <use xlink:href="#DejaVuSans-52" transform="translate(138.232422 0)"/>
      </g>
     </g>
    </g>
    <g id="ytick_4">
     <g id="line2d_17">
      <path d="M 36.846875 126.50959 
L 650.079816 126.50959 
" clip-path="url(#p7ab81cf7f5)" style="fill: none; stroke: #b0b0b0; stroke-opacity: 0.3; stroke-width: 0.8; stroke-linecap: square"/>
     </g>
     <g id="line2d_18">
      <g>
       <use xlink:href="#m18ec20c041" x="36.846875" y="126.50959" style="stroke: #000000; stroke-width: 0.8"/>
      </g>
     </g>
     <g id="text_10">
      <!-- DAL -->
      <g transform="translate(9.909375 130.308809) scale(0.1 -0.1)">
       <defs>
        <path id="DejaVuSans-44" d="M 1259 4147 
L 1259 519 
L 2022 519 
Q 2988 519 3436 956 
Q 3884 1394 3884 2338 
Q 3884 3275 3436 3711 
Q 2988 4147 2022 4147 
L 1259 4147 
z
M 628 4666 
L 1925 4666 
Q 3281 4666 3915 4102 
Q 4550 3538 4550 2338 
Q 4550 1131 3912 565 
Q 3275 0 1925 0 
L 628 0 
L 628 4666 
z
" transform="scale(0.015625)"/>
       </defs>
       <use xlink:href="#DejaVuSans-44"/>
       <use xlink:href="#DejaVuSans-41" transform="translate(75.251953 0)"/>
       <use xlink:href="#DejaVuSans-4c" transform="translate(143.660156 0)"/>
      </g>
     </g>
    </g>
    <g id="ytick_5">
     <g id="line2d_19">
      <path d="M 36.846875 151.707042 
L 650.079816 151.707042 
" clip-path="url(#p7ab81cf7f5)" style="fill: none; stroke: #b0b0b0; stroke-opacity: 0.3; stroke-width: 0.8; stroke-linecap: square"/>
     </g>
     <g id="line2d_20">
      <g>
       <use xlink:href="#m18ec20c041" x="36.846875" y="151.707042" style="stroke: #000000; stroke-width: 0.8"/>
      </g>
     </g>
     <g id="text_11">
      <!-- EDM -->
      <g transform="translate(7.2 155.506261) scale(0.1 -0.1)">
       <defs>
        <path id="DejaVuSans-45" d="M 628 4666 
L 3578 4666 
L 3578 4134 
L 1259 4134 
L 1259 2753 
L 3481 2753 
L 3481 2222 
L 1259 2222 
L 1259 531 
L 3634 531 
L 3634 0 
L 628 0 
L 628 4666 
z
" transform="scale(0.015625)"/>
        <path id="DejaVuSans-4d" d="M 628 4666 
L 1569 4666 
L 2759 1491 
L 3956 4666 
L 4897 4666 
L 4897 0 
L 4281 0 
L 4281 4097 
L 3078 897 
L 2444 897 
L 1241 4097 
L 1241 0 
L 628 0 
L 628 4666 
z
" transform="scale(0.015625)"/>
       </defs>
       <use xlink:href="#DejaVuSans-45"/>
       <use xlink:href="#DejaVuSans-44" transform="translate(63.183594 0)"/>
       <use xlink:href="#DejaVuSans-4d" transform="translate(140.185547 0)"/>
      </g>
     </g>
    </g>
    <g id="ytick_6">
     <g id="line2d_21">
      <path d="M 36.846875 176.904494 
L 650.079816 176.904494 
" clip-path="url(#p7ab81cf7f5)" style="fill: none; stroke: #b0b0b0; stroke-opacity: 0.3; stroke-width: 0.8; stroke-linecap: square"/>
     </g>
     <g id="line2d_22">
      <g>
       <use xlink:href="#m18ec20c041" x="36.846875" y="176.904494" style="stroke: #000000; stroke-width: 0.8"/>
      </g>
     </g>
     <g id="text_12">
      <!-- MTL -->
      <g transform="translate(9.539063 180.703713) scale(0.1 -0.1)">
       <defs>
        <path id="DejaVuSans-54" d="M -19 4666 
L 3928 4666 
L 3928 4134 
L 2272 4134 
L 2272 0 
L 1638 0 
L 1638 4134 
L -19 4134 
L -19 4666 
z
" transform="scale(0.015625)"/>
       </defs>
       <use xlink:href="#DejaVuSans-4d"/>
       <use xlink:href="#DejaVuSans-54" transform="translate(86.279297 0)"/>
       <use xlink:href="#DejaVuSans-4c" transform="translate(147.363281 0)"/>
      </g>
     </g>
    </g>
    <g id="ytick_7">
     <g id="line2d_23">
      <path d="M 36.846875 202.101947 
L 650.079816 202.101947 
" clip-path="url(#p7ab81cf7f5)" style="fill: none; stroke: #b0b0b0; stroke-opacity: 0.3; stroke-width: 0.8; stroke-linecap: square"/>
     </g>
     <g id="line2d_24">
      <g>
       <use xlink:href="#m18ec20c041" x="36.846875" y="202.101947" style="stroke: #000000; stroke-width: 0.8"/>
      </g>
     </g>
     <g id="text_13">
      <!-- UTA -->
      <g transform="translate(10.354688 205.901165) scale(0.1 -0.1)">
       <use xlink:href="#DejaVuSans-55"/>
       <use xlink:href="#DejaVuSans-54" transform="translate(73.193359 0)"/>
       <use xlink:href="#DejaVuSans-41" transform="translate(126.527344 0)"/>
      </g>
     </g>
    </g>
    <g id="ytick_8">
     <g id="line2d_25">
      <path d="M 36.846875 227.299399 
L 650.079816 227.299399 
" clip-path="url(#p7ab81cf7f5)" style="fill: none; stroke: #b0b0b0; stroke-opacity: 0.3; stroke-width: 0.8; stroke-linecap: square"/>
     </g>
     <g id="line2d_26">
      <g>
       <use xlink:href="#m18ec20c041" x="36.846875" y="227.299399" style="stroke: #000000; stroke-width: 0.8"/>
      </g>
     </g>
     <g id="text_14">
      <!-- PHI -->
      <g transform="translate(13.346875 231.098618) scale(0.1 -0.1)">
       <defs>
        <path id="DejaVuSans-48" d="M 628 4666 
L 1259 4666 
L 1259 2753 
L 3553 2753 
L 3553 4666 
L 4184 4666 
L 4184 0 
L 3553 0 
L 3553 2222 
L 1259 2222 
L 1259 0 
L 628 0 
L 628 4666 
z
" transform="scale(0.015625)"/>
        <path id="DejaVuSans-49" d="M 628 4666 
L 1259 4666 
L 1259 0 
L 628 0 
L 628 4666 
z
" transform="scale(0.015625)"/>
       </defs>
       <use xlink:href="#DejaVuSans-50"/>
       <use xlink:href="#DejaVuSans-48" transform="translate(60.302734 0)"/>
       <use xlink:href="#DejaVuSans-49" transform="translate(135.498047 0)"/>
      </g>
     </g>
    </g>
    <g id="ytick_9">
     <g id="line2d_27">
      <path d="M 36.846875 252.496851 
L 650.079816 252.496851 
" clip-path="url(#p7ab81cf7f5)" style="fill: none; stroke: #b0b0b0; stroke-opacity: 0.3; stroke-width: 0.8; stroke-linecap: square"/>
     </g>
     <g id="line2d_28">
      <g>
       <use xlink:href="#m18ec20c041" x="36.846875" y="252.496851" style="stroke: #000000; stroke-width: 0.8"/>
      </g>
     </g>
     <g id="text_15">
      <!-- VGK -->
      <g transform="translate(8.7 256.29607) scale(0.1 -0.1)">
       <defs>
        <path id="DejaVuSans-56" d="M 1831 0 
L 50 4666 
L 709 4666 
L 2188 738 
L 3669 4666 
L 4325 4666 
L 2547 0 
L 1831 0 
z
" transform="scale(0.015625)"/>
        <path id="DejaVuSans-4b" d="M 628 4666 
L 1259 4666 
L 1259 2694 
L 3353 4666 
L 4166 4666 
L 1850 2491 
L 4331 0 
L 3500 0 
L 1259 2247 
L 1259 0 
L 628 0 
L 628 4666 
z
" transform="scale(0.015625)"/>
       </defs>
       <use xlink:href="#DejaVuSans-56"/>
       <use xlink:href="#DejaVuSans-47" transform="translate(68.408203 0)"/>
       <use xlink:href="#DejaVuSans-4b" transform="translate(145.898438 0)"/>
      </g>
     </g>
    </g>
    <g id="ytick_10">
     <g id="line2d_29">
      <path d="M 36.846875 277.694303 
L 650.079816 277.694303 
" clip-path="url(#p7ab81cf7f5)" style="fill: none; stroke: #b0b0b0; stroke-opacity: 0.3; stroke-width: 0.8; stroke-linecap: square"/>
     </g>
     <g id="line2d_30">
      <g>
       <use xlink:href="#m18ec20c041" x="36.846875" y="277.694303" style="stroke: #000000; stroke-width: 0.8"/>
      </g>
     </g>
     <g id="text_16">
      <!-- TBL -->
      <g transform="translate(11.30625 281.493522) scale(0.1 -0.1)">
       <use xlink:href="#DejaVuSans-54"/>
       <use xlink:href="#DejaVuSans-42" transform="translate(61.083984 0)"/>
       <use xlink:href="#DejaVuSans-4c" transform="translate(129.6875 0)"/>
      </g>
     </g>
    </g>
    <g id="ytick_11">
     <g id="line2d_31">
      <path d="M 36.846875 302.891756 
L 650.079816 302.891756 
" clip-path="url(#p7ab81cf7f5)" style="fill: none; stroke: #b0b0b0; stroke-opacity: 0.3; stroke-width: 0.8; stroke-linecap: square"/>
     </g>
     <g id="line2d_32">
      <g>
       <use xlink:href="#m18ec20c041" x="36.846875" y="302.891756" style="stroke: #000000; stroke-width: 0.8"/>
      </g>
     </g>
     <g id="text_17">
      <!-- OTT -->
      <g transform="translate(9.934375 306.690974) scale(0.1 -0.1)">
       <use xlink:href="#DejaVuSans-4f"/>
       <use xlink:href="#DejaVuSans-54" transform="translate(78.710938 0)"/>
       <use xlink:href="#DejaVuSans-54" transform="translate(138.044922 0)"/>
      </g>
     </g>
    </g>
    <g id="ytick_12">
     <g id="line2d_33">
      <path d="M 36.846875 328.089208 
L 650.079816 328.089208 
" clip-path="url(#p7ab81cf7f5)" style="fill: none; stroke: #b0b0b0; stroke-opacity: 0.3; stroke-width: 0.8; stroke-linecap: square"/>
     </g>
     <g id="line2d_34">
      <g>
       <use xlink:href="#m18ec20c041" x="36.846875" y="328.089208" style="stroke: #000000; stroke-width: 0.8"/>
      </g>
     </g>
     <g id="text_18">
      <!-- MIN -->
      <g transform="translate(10.7875 331.888427) scale(0.1 -0.1)">
       <defs>
        <path id="DejaVuSans-4e" d="M 628 4666 
L 1478 4666 
L 3547 763 
L 3547 4666 
L 4159 4666 
L 4159 0 
L 3309 0 
L 1241 3903 
L 1241 0 
L 628 0 
L 628 4666 
z
" transform="scale(0.015625)"/>
       </defs>
       <use xlink:href="#DejaVuSans-4d"/>
       <use xlink:href="#DejaVuSans-49" transform="translate(86.279297 0)"/>
       <use xlink:href="#DejaVuSans-4e" transform="translate(115.771484 0)"/>
      </g>
     </g>
    </g>
    <g id="ytick_13">
     <g id="line2d_35">
      <path d="M 36.846875 353.28666 
L 650.079816 353.28666 
" clip-path="url(#p7ab81cf7f5)" style="fill: none; stroke: #b0b0b0; stroke-opacity: 0.3; stroke-width: 0.8; stroke-linecap: square"/>
     </g>
     <g id="line2d_36">
      <g>
       <use xlink:href="#m18ec20c041" x="36.846875" y="353.28666" style="stroke: #000000; stroke-width: 0.8"/>
      </g>
     </g>
     <g id="text_19">
      <!-- PIT -->
      <g transform="translate(14.759375 357.085879) scale(0.1 -0.1)">
       <use xlink:href="#DejaVuSans-50"/>
       <use xlink:href="#DejaVuSans-49" transform="translate(60.302734 0)"/>
       <use xlink:href="#DejaVuSans-54" transform="translate(89.794922 0)"/>
      </g>
     </g>
    </g>
    <g id="ytick_14">
     <g id="line2d_37">
      <path d="M 36.846875 378.484112 
L 650.079816 378.484112 
" clip-path="url(#p7ab81cf7f5)" style="fill: none; stroke: #b0b0b0; stroke-opacity: 0.3; stroke-width: 0.8; stroke-linecap: square"/>
     </g>
     <g id="line2d_38">
      <g>
       <use xlink:href="#m18ec20c041" x="36.846875" y="378.484112" style="stroke: #000000; stroke-width: 0.8"/>
      </g>
     </g>
     <g id="text_20">
      <!-- ANA -->
      <g transform="translate(8.684375 382.283331) scale(0.1 -0.1)">
       <use xlink:href="#DejaVuSans-41"/>
       <use xlink:href="#DejaVuSans-4e" transform="translate(68.408203 0)"/>
       <use xlink:href="#DejaVuSans-41" transform="translate(143.212891 0)"/>
      </g>
     </g>
    </g>
    <g id="ytick_15">
     <g id="line2d_39">
      <path d="M 36.846875 403.681564 
L 650.079816 403.681564 
" clip-path="url(#p7ab81cf7f5)" style="fill: none; stroke: #b0b0b0; stroke-opacity: 0.3; stroke-width: 0.8; stroke-linecap: square"/>
     </g>
     <g id="line2d_40">
      <g>
       <use xlink:href="#m18ec20c041" x="36.846875" y="403.681564" style="stroke: #000000; stroke-width: 0.8"/>
      </g>
     </g>
     <g id="text_21">
      <!-- BOS -->
      <g transform="translate(8.940625 407.480783) scale(0.1 -0.1)">
       <defs>
        <path id="DejaVuSans-53" d="M 3425 4513 
L 3425 3897 
Q 3066 4069 2747 4153 
Q 2428 4238 2131 4238 
Q 1616 4238 1336 4038 
Q 1056 3838 1056 3469 
Q 1056 3159 1242 3001 
Q 1428 2844 1947 2747 
L 2328 2669 
Q 3034 2534 3370 2195 
Q 3706 1856 3706 1288 
Q 3706 609 3251 259 
Q 2797 -91 1919 -91 
Q 1588 -91 1214 -16 
Q 841 59 441 206 
L 441 856 
Q 825 641 1194 531 
Q 1563 422 1919 422 
Q 2459 422 2753 634 
Q 3047 847 3047 1241 
Q 3047 1584 2836 1778 
Q 2625 1972 2144 2069 
L 1759 2144 
Q 1053 2284 737 2584 
Q 422 2884 422 3419 
Q 422 4038 858 4394 
Q 1294 4750 2059 4750 
Q 2388 4750 2728 4690 
Q 3069 4631 3425 4513 
z
" transform="scale(0.015625)"/>
       </defs>
       <use xlink:href="#DejaVuSans-42"/>
       <use xlink:href="#DejaVuSans-4f" transform="translate(66.853516 0)"/>
       <use xlink:href="#DejaVuSans-53" transform="translate(145.564453 0)"/>
      </g>
     </g>
    </g>
    <g id="ytick_16">
     <g id="line2d_41">
      <path d="M 36.846875 428.879017 
L 650.079816 428.879017 
" clip-path="url(#p7ab81cf7f5)" style="fill: none; stroke: #b0b0b0; stroke-opacity: 0.3; stroke-width: 0.8; stroke-linecap: square"/>
     </g>
     <g id="line2d_42">
      <g>
       <use xlink:href="#m18ec20c041" x="36.846875" y="428.879017" style="stroke: #000000; stroke-width: 0.8"/>
      </g>
     </g>
     <g id="text_22">
      <!-- LAK -->
      <g transform="translate(10.651563 432.678235) scale(0.1 -0.1)">
       <use xlink:href="#DejaVuSans-4c"/>
       <use xlink:href="#DejaVuSans-41" transform="translate(57.962891 0)"/>
       <use xlink:href="#DejaVuSans-4b" transform="translate(126.371094 0)"/>
      </g>
     </g>
    </g>
   </g>
   <g id="patch_3">
    <path d="M 36.846875 50.917233 
L 444.371888 50.917233 
L 444.371888 59.736342 
L 36.846875 59.736342 
z
" clip-path="url(#p7ab81cf7f5)" style="fill: #1f77b4; opacity: 0.75; stroke: #ffffff; stroke-linejoin: miter"/>
   </g>
   <g id="patch_4">
    <path d="M 36.846875 76.114686 
L 390.909922 76.114686 
L 390.909922 84.933794 
L 36.846875 84.933794 
z
" clip-path="url(#p7ab81cf7f5)" style="fill: #1f77b4; opacity: 0.75; stroke: #ffffff; stroke-linejoin: miter"/>
   </g>
   <g id="patch_5">
    <path d="M 36.846875 101.312138 
L 387.806458 101.312138 
L 387.806458 110.131246 
L 36.846875 110.131246 
z
" clip-path="url(#p7ab81cf7f5)" style="fill: #1f77b4; opacity: 0.75; stroke: #ffffff; stroke-linejoin: miter"/>
   </g>
   <g id="patch_6">
    <path d="M 36.846875 126.50959 
L 350.228022 126.50959 
L 350.228022 135.328698 
L 36.846875 135.328698 
z
" clip-path="url(#p7ab81cf7f5)" style="fill: #1f77b4; opacity: 0.75; stroke: #ffffff; stroke-linejoin: miter"/>
   </g>
   <g id="patch_7">
    <path d="M 36.846875 151.707042 
L 340.27095 151.707042 
L 340.27095 160.52615 
L 36.846875 160.52615 
z
" clip-path="url(#p7ab81cf7f5)" style="fill: #1f77b4; opacity: 0.75; stroke: #ffffff; stroke-linejoin: miter"/>
   </g>
   <g id="patch_8">
    <path d="M 36.846875 176.904494 
L 331.946247 176.904494 
L 331.946247 185.723603 
L 36.846875 185.723603 
z
" clip-path="url(#p7ab81cf7f5)" style="fill: #1f77b4; opacity: 0.75; stroke: #ffffff; stroke-linejoin: miter"/>
   </g>
   <g id="patch_9">
    <path d="M 36.846875 202.101947 
L 330.493867 202.101947 
L 330.493867 210.921055 
L 36.846875 210.921055 
z
" clip-path="url(#p7ab81cf7f5)" style="fill: #1f77b4; opacity: 0.75; stroke: #ffffff; stroke-linejoin: miter"/>
   </g>
   <g id="patch_10">
    <path d="M 36.846875 227.299399 
L 310.637995 227.299399 
L 310.637995 236.118507 
L 36.846875 236.118507 
z
" clip-path="url(#p7ab81cf7f5)" style="fill: #1f77b4; opacity: 0.75; stroke: #ffffff; stroke-linejoin: miter"/>
   </g>
   <g id="patch_11">
    <path d="M 36.846875 252.496851 
L 310.310407 252.496851 
L 310.310407 261.315959 
L 36.846875 261.315959 
z
" clip-path="url(#p7ab81cf7f5)" style="fill: #1f77b4; opacity: 0.75; stroke: #ffffff; stroke-linejoin: miter"/>
   </g>
   <g id="patch_12">
    <path d="M 36.846875 277.694303 
L 304.527169 277.694303 
L 304.527169 286.513412 
L 36.846875 286.513412 
z
" clip-path="url(#p7ab81cf7f5)" style="fill: #1f77b4; opacity: 0.75; stroke: #ffffff; stroke-linejoin: miter"/>
   </g>
   <g id="patch_13">
    <path d="M 36.846875 302.891756 
L 297.714044 302.891756 
L 297.714044 311.710864 
L 36.846875 311.710864 
z
" clip-path="url(#p7ab81cf7f5)" style="fill: #1f77b4; opacity: 0.75; stroke: #ffffff; stroke-linejoin: miter"/>
   </g>
   <g id="patch_14">
    <path d="M 36.846875 328.089208 
L 289.816878 328.089208 
L 289.816878 336.908316 
L 36.846875 336.908316 
z
" clip-path="url(#p7ab81cf7f5)" style="fill: #1f77b4; opacity: 0.75; stroke: #ffffff; stroke-linejoin: miter"/>
   </g>
   <g id="patch_15">
    <path d="M 36.846875 353.28666 
L 278.600689 353.28666 
L 278.600689 362.105768 
L 36.846875 362.105768 
z
" clip-path="url(#p7ab81cf7f5)" style="fill: #1f77b4; opacity: 0.75; stroke: #ffffff; stroke-linejoin: miter"/>
   </g>
   <g id="patch_16">
    <path d="M 36.846875 378.484112 
L 269.100224 378.484112 
L 269.100224 387.303221 
L 36.846875 387.303221 
z
" clip-path="url(#p7ab81cf7f5)" style="fill: #1f77b4; opacity: 0.75; stroke: #ffffff; stroke-linejoin: miter"/>
   </g>
   <g id="patch_17">
    <path d="M 36.846875 403.681564 
L 255.386503 403.681564 
L 255.386503 412.500673 
L 36.846875 412.500673 
z
" clip-path="url(#p7ab81cf7f5)" style="fill: #1f77b4; opacity: 0.75; stroke: #ffffff; stroke-linejoin: miter"/>
   </g>
   <g id="patch_18">
    <path d="M 36.846875 428.879017 
L 203.98577 428.879017 
L 203.98577 437.698125 
L 36.846875 437.698125 
z
" clip-path="url(#p7ab81cf7f5)" style="fill: #1f77b4; opacity: 0.75; stroke: #ffffff; stroke-linejoin: miter"/>
   </g>
   <g id="patch_19">
    <path d="M 36.846875 42.098125 
L 381.956322 42.098125 
L 381.956322 50.917233 
L 36.846875 50.917233 
z
" clip-path="url(#p7ab81cf7f5)" style="fill: #ff7f0e; stroke: #ffffff; stroke-linejoin: miter"/>
   </g>
   <g id="patch_20">
    <path d="M 36.846875 67.295577 
L 381.956322 67.295577 
L 381.956322 76.114686 
L 36.846875 76.114686 
z
" clip-path="url(#p7ab81cf7f5)" style="fill: #ff7f0e; stroke: #ffffff; stroke-linejoin: miter"/>
   </g>
   <g id="patch_21">
    <path d="M 36.846875 92.493029 
L 541.237606 92.493029 
L 541.237606 101.312138 
L 36.846875 101.312138 
z
" clip-path="url(#p7ab81cf7f5)" style="fill: #ff7f0e; stroke: #ffffff; stroke-linejoin: miter"/>
   </g>
   <g id="patch_22">
    <path d="M 36.846875 117.690482 
L 196.128158 117.690482 
L 196.128158 126.50959 
L 36.846875 126.50959 
z
" clip-path="url(#p7ab81cf7f5)" style="fill: #ff7f0e; stroke: #ffffff; stroke-linejoin: miter"/>
   </g>
   <g id="patch_23">
    <path d="M 36.846875 142.887934 
L 196.128158 142.887934 
L 196.128158 151.707042 
L 36.846875 151.707042 
z
" clip-path="url(#p7ab81cf7f5)" style="fill: #ff7f0e; stroke: #ffffff; stroke-linejoin: miter"/>
   </g>
   <g id="patch_24">
    <path d="M 36.846875 168.085386 
L 541.237606 168.085386 
L 541.237606 176.904494 
L 36.846875 176.904494 
z
" clip-path="url(#p7ab81cf7f5)" style="fill: #ff7f0e; stroke: #ffffff; stroke-linejoin: miter"/>
   </g>
   <g id="patch_25">
    <path d="M 36.846875 193.282838 
L 196.128158 193.282838 
L 196.128158 202.101947 
L 36.846875 202.101947 
z
" clip-path="url(#p7ab81cf7f5)" style="fill: #ff7f0e; stroke: #ffffff; stroke-linejoin: miter"/>
   </g>
   <g id="patch_26">
    <path d="M 36.846875 218.480291 
L 302.315681 218.480291 
L 302.315681 227.299399 
L 36.846875 227.299399 
z
" clip-path="url(#p7ab81cf7f5)" style="fill: #ff7f0e; stroke: #ffffff; stroke-linejoin: miter"/>
   </g>
   <g id="patch_27">
    <path d="M 36.846875 243.677743 
L 620.878248 243.677743 
L 620.878248 252.496851 
L 36.846875 252.496851 
z
" clip-path="url(#p7ab81cf7f5)" style="fill: #ff7f0e; stroke: #ffffff; stroke-linejoin: miter"/>
   </g>
   <g id="patch_28">
    <path d="M 36.846875 268.875195 
L 222.675039 268.875195 
L 222.675039 277.694303 
L 36.846875 277.694303 
z
" clip-path="url(#p7ab81cf7f5)" style="fill: #ff7f0e; stroke: #ffffff; stroke-linejoin: miter"/>
   </g>
   <g id="patch_29">
    <path d="M 36.846875 294.072647 
L 143.034397 294.072647 
L 143.034397 302.891756 
L 36.846875 302.891756 
z
" clip-path="url(#p7ab81cf7f5)" style="fill: #ff7f0e; stroke: #ffffff; stroke-linejoin: miter"/>
   </g>
   <g id="patch_30">
    <path d="M 36.846875 319.2701 
L 328.862561 319.2701 
L 328.862561 328.089208 
L 36.846875 328.089208 
z
" clip-path="url(#p7ab81cf7f5)" style="fill: #ff7f0e; stroke: #ffffff; stroke-linejoin: miter"/>
   </g>
   <g id="patch_31">
    <path d="M 36.846875 344.467552 
L 196.128158 344.467552 
L 196.128158 353.28666 
L 36.846875 353.28666 
z
" clip-path="url(#p7ab81cf7f5)" style="fill: #ff7f0e; stroke: #ffffff; stroke-linejoin: miter"/>
   </g>
   <g id="patch_32">
    <path d="M 36.846875 369.665004 
L 355.409442 369.665004 
L 355.409442 378.484112 
L 36.846875 378.484112 
z
" clip-path="url(#p7ab81cf7f5)" style="fill: #ff7f0e; stroke: #ffffff; stroke-linejoin: miter"/>
   </g>
   <g id="patch_33">
    <path d="M 36.846875 394.862456 
L 196.128158 394.862456 
L 196.128158 403.681564 
L 36.846875 403.681564 
z
" clip-path="url(#p7ab81cf7f5)" style="fill: #ff7f0e; stroke: #ffffff; stroke-linejoin: miter"/>
   </g>
   <g id="patch_34">
    <path d="M 36.846875 420.059908 
L 143.034397 420.059908 
L 143.034397 428.879017 
L 36.846875 428.879017 
z
" clip-path="url(#p7ab81cf7f5)" style="fill: #ff7f0e; stroke: #ffffff; stroke-linejoin: miter"/>
   </g>
   <g id="patch_35">
    <path d="M 36.846875 457.478125 
L 36.846875 22.318125 
" style="fill: none; stroke: #000000; stroke-width: 0.8; stroke-linejoin: miter; stroke-linecap: square"/>
   </g>
   <g id="patch_36">
    <path d="M 650.079816 457.478125 
L 650.079816 22.318125 
" style="fill: none; stroke: #000000; stroke-width: 0.8; stroke-linejoin: miter; stroke-linecap: square"/>
   </g>
   <g id="patch_37">
    <path d="M 36.846875 457.478125 
L 650.079816 457.478125 
" style="fill: none; stroke: #000000; stroke-width: 0.8; stroke-linejoin: miter; stroke-linecap: square"/>
   </g>
   <g id="patch_38">
    <path d="M 36.846875 22.318125 
L 650.079816 22.318125 
" style="fill: none; stroke: #000000; stroke-width: 0.8; stroke-linejoin: miter; stroke-linecap: square"/>
   </g>
   <g id="text_23">
    <!-- Expected vs. Actual Playoff Games -->
    <g transform="translate(239.063346 16.318125) scale(0.12 -0.12)">
     <defs>
      <path id="DejaVuSans-78" d="M 3513 3500 
L 2247 1797 
L 3578 0 
L 2900 0 
L 1881 1375 
L 863 0 
L 184 0 
L 1544 1831 
L 300 3500 
L 978 3500 
L 1906 2253 
L 2834 3500 
L 3513 3500 
z
" transform="scale(0.015625)"/>
      <path id="DejaVuSans-70" d="M 1159 525 
L 1159 -1331 
L 581 -1331 
L 581 3500 
L 1159 3500 
L 1159 2969 
Q 1341 3281 1617 3432 
Q 1894 3584 2278 3584 
Q 2916 3584 3314 3078 
Q 3713 2572 3713 1747 
Q 3713 922 3314 415 
Q 2916 -91 2278 -91 
Q 1894 -91 1617 61 
Q 1341 213 1159 525 
z
M 3116 1747 
Q 3116 2381 2855 2742 
Q 2594 3103 2138 3103 
Q 1681 3103 1420 2742 
Q 1159 2381 1159 1747 
Q 1159 1113 1420 752 
Q 1681 391 2138 391 
Q 2594 391 2855 752 
Q 3116 1113 3116 1747 
z
" transform="scale(0.015625)"/>
      <path id="DejaVuSans-63" d="M 3122 3366 
L 3122 2828 
Q 2878 2963 2633 3030 
Q 2388 3097 2138 3097 
Q 1578 3097 1268 2742 
Q 959 2388 959 1747 
Q 959 1106 1268 751 
Q 1578 397 2138 397 
Q 2388 397 2633 464 
Q 2878 531 3122 666 
L 3122 134 
Q 2881 22 2623 -34 
Q 2366 -91 2075 -91 
Q 1284 -91 818 406 
Q 353 903 353 1747 
Q 353 2603 823 3093 
Q 1294 3584 2113 3584 
Q 2378 3584 2631 3529 
Q 2884 3475 3122 3366 
z
" transform="scale(0.015625)"/>
      <path id="DejaVuSans-74" d="M 1172 4494 
L 1172 3500 
L 2356 3500 
L 2356 3053 
L 1172 3053 
L 1172 1153 
Q 1172 725 1289 603 
Q 1406 481 1766 481 
L 2356 481 
L 2356 0 
L 1766 0 
Q 1100 0 847 248 
Q 594 497 594 1153 
L 594 3053 
L 172 3053 
L 172 3500 
L 594 3500 
L 594 4494 
L 1172 4494 
z
" transform="scale(0.015625)"/>
      <path id="DejaVuSans-64" d="M 2906 2969 
L 2906 4863 
L 3481 4863 
L 3481 0 
L 2906 0 
L 2906 525 
Q 2725 213 2448 61 
Q 2172 -91 1784 -91 
Q 1150 -91 751 415 
Q 353 922 353 1747 
Q 353 2572 751 3078 
Q 1150 3584 1784 3584 
Q 2172 3584 2448 3432 
Q 2725 3281 2906 2969 
z
M 947 1747 
Q 947 1113 1208 752 
Q 1469 391 1925 391 
Q 2381 391 2643 752 
Q 2906 1113 2906 1747 
Q 2906 2381 2643 2742 
Q 2381 3103 1925 3103 
Q 1469 3103 1208 2742 
Q 947 2381 947 1747 
z
" transform="scale(0.015625)"/>
      <path id="DejaVuSans-76" d="M 191 3500 
L 800 3500 
L 1894 563 
L 2988 3500 
L 3597 3500 
L 2284 0 
L 1503 0 
L 191 3500 
z
" transform="scale(0.015625)"/>
      <path id="DejaVuSans-2e" d="M 684 794 
L 1344 794 
L 1344 0 
L 684 0 
L 684 794 
z
" transform="scale(0.015625)"/>
      <path id="DejaVuSans-75" d="M 544 1381 
L 544 3500 
L 1119 3500 
L 1119 1403 
Q 1119 906 1312 657 
Q 1506 409 1894 409 
Q 2359 409 2629 706 
Q 2900 1003 2900 1516 
L 2900 3500 
L 3475 3500 
L 3475 0 
L 2900 0 
L 2900 538 
Q 2691 219 2414 64 
Q 2138 -91 1772 -91 
Q 1169 -91 856 284 
Q 544 659 544 1381 
z
M 1991 3584 
L 1991 3584 
z
" transform="scale(0.015625)"/>
     </defs>
     <use xlink:href="#DejaVuSans-45"/>
     <use xlink:href="#DejaVuSans-78" transform="translate(63.183594 0)"/>
     <use xlink:href="#DejaVuSans-70" transform="translate(122.363281 0)"/>
     <use xlink:href="#DejaVuSans-65" transform="translate(185.839844 0)"/>
     <use xlink:href="#DejaVuSans-63" transform="translate(247.363281 0)"/>
     <use xlink:href="#DejaVuSans-74" transform="translate(302.34375 0)"/>
     <use xlink:href="#DejaVuSans-65" transform="translate(341.552734 0)"/>
     <use xlink:href="#DejaVuSans-64" transform="translate(403.076172 0)"/>
     <use xlink:href="#DejaVuSans-20" transform="translate(466.552734 0)"/>
     <use xlink:href="#DejaVuSans-76" transform="translate(498.339844 0)"/>
     <use xlink:href="#DejaVuSans-73" transform="translate(557.519531 0)"/>
     <use xlink:href="#DejaVuSans-2e" transform="translate(609.619141 0)"/>
     <use xlink:href="#DejaVuSans-20" transform="translate(641.40625 0)"/>
     <use xlink:href="#DejaVuSans-41" transform="translate(673.193359 0)"/>
     <use xlink:href="#DejaVuSans-63" transform="translate(739.851562 0)"/>
     <use xlink:href="#DejaVuSans-74" transform="translate(794.832031 0)"/>
     <use xlink:href="#DejaVuSans-75" transform="translate(834.041016 0)"/>
     <use xlink:href="#DejaVuSans-61" transform="translate(897.419922 0)"/>
     <use xlink:href="#DejaVuSans-6c" transform="translate(958.699219 0)"/>
     <use xlink:href="#DejaVuSans-20" transform="translate(986.482422 0)"/>
     <use xlink:href="#DejaVuSans-50" transform="translate(1018.269531 0)"/>
     <use xlink:href="#DejaVuSans-6c" transform="translate(1078.572266 0)"/>
     <use xlink:href="#DejaVuSans-61" transform="translate(1106.355469 0)"/>
     <use xlink:href="#DejaVuSans-79" transform="translate(1167.634766 0)"/>
     <use xlink:href="#DejaVuSans-6f" transform="translate(1226.814453 0)"/>
     <use xlink:href="#DejaVuSans-66" transform="translate(1287.996094 0)"/>
     <use xlink:href="#DejaVuSans-66" transform="translate(1323.201172 0)"/>
     <use xlink:href="#DejaVuSans-20" transform="translate(1358.40625 0)"/>
     <use xlink:href="#DejaVuSans-47" transform="translate(1390.193359 0)"/>
     <use xlink:href="#DejaVuSans-61" transform="translate(1467.683594 0)"/>
     <use xlink:href="#DejaVuSans-6d" transform="translate(1528.962891 0)"/>
     <use xlink:href="#DejaVuSans-65" transform="translate(1626.375 0)"/>
     <use xlink:href="#DejaVuSans-73" transform="translate(1687.898438 0)"/>
    </g>
   </g>
   <g id="legend_1">
    <g id="patch_39">
     <path d="M 564.420441 59.674375 
L 643.079816 59.674375 
Q 645.079816 59.674375 645.079816 57.674375 
L 645.079816 29.318125 
Q 645.079816 27.318125 643.079816 27.318125 
L 564.420441 27.318125 
Q 562.420441 27.318125 562.420441 29.318125 
L 562.420441 57.674375 
Q 562.420441 59.674375 564.420441 59.674375 
z
" style="fill: #ffffff; opacity: 0.8; stroke: #cccccc; stroke-linejoin: miter"/>
    </g>
    <g id="patch_40">
     <path d="M 566.420441 38.916562 
L 586.420441 38.916562 
L 586.420441 31.916562 
L 566.420441 31.916562 
z
" style="fill: #1f77b4; opacity: 0.75; stroke: #ffffff; stroke-linejoin: miter"/>
    </g>
    <g id="text_24">
     <!-- Expected -->
     <g transform="translate(594.420441 38.916562) scale(0.1 -0.1)">
      <use xlink:href="#DejaVuSans-45"/>
      <use xlink:href="#DejaVuSans-78" transform="translate(63.183594 0)"/>
      <use xlink:href="#DejaVuSans-70" transform="translate(122.363281 0)"/>
      <use xlink:href="#DejaVuSans-65" transform="translate(185.839844 0)"/>
      <use xlink:href="#DejaVuSans-63" transform="translate(247.363281 0)"/>
      <use xlink:href="#DejaVuSans-74" transform="translate(302.34375 0)"/>
      <use xlink:href="#DejaVuSans-65" transform="translate(341.552734 0)"/>
      <use xlink:href="#DejaVuSans-64" transform="translate(403.076172 0)"/>
     </g>
    </g>
    <g id="patch_41">
     <path d="M 566.420441 53.594687 
L 586.420441 53.594687 
L 586.420441 46.594687 
L 566.420441 46.594687 
z
" style="fill: #ff7f0e; stroke: #ffffff; stroke-linejoin: miter"/>
    </g>
    <g id="text_25">
     <!-- Actual -->
     <g transform="translate(594.420441 53.594687) scale(0.1 -0.1)">
      <use xlink:href="#DejaVuSans-41"/>
      <use xlink:href="#DejaVuSans-63" transform="translate(66.658203 0)"/>
      <use xlink:href="#DejaVuSans-74" transform="translate(121.638672 0)"/>
      <use xlink:href="#DejaVuSans-75" transform="translate(160.847656 0)"/>
      <use xlink:href="#DejaVuSans-61" transform="translate(224.226562 0)"/>
      <use xlink:href="#DejaVuSans-6c" transform="translate(285.505859 0)"/>
     </g>
    </g>
   </g>
  </g>
  <g id="axes_2">
   <g id="patch_42">
    <path d="M 660.879816 457.478125 
L 849.566875 457.478125 
L 849.566875 22.318125 
L 660.879816 22.318125 
z
" style="fill: #ffffff"/>
   </g>
   <g id="matplotlib.axis_3">
    <g id="xtick_6">
     <g id="line2d_43">
      <path d="M 682.6514 457.478125 
L 682.6514 22.318125 
" clip-path="url(#pc1022a93cd)" style="fill: none; stroke: #b0b0b0; stroke-opacity: 0.2; stroke-width: 0.8; stroke-linecap: square"/>
     </g>
     <g id="line2d_44">
      <g>
       <use xlink:href="#mf86f6de5de" x="682.6514" y="457.478125" style="stroke: #000000; stroke-width: 0.8"/>
      </g>
     </g>
     <g id="text_26">
      <!-- −10 -->
      <g transform="translate(672.099056 472.076563) scale(0.1 -0.1)">
       <defs>
        <path id="DejaVuSans-2212" d="M 678 2272 
L 4684 2272 
L 4684 1741 
L 678 1741 
L 678 2272 
z
" transform="scale(0.015625)"/>
       </defs>
       <use xlink:href="#DejaVuSans-2212"/>
       <use xlink:href="#DejaVuSans-31" transform="translate(83.789062 0)"/>
       <use xlink:href="#DejaVuSans-30" transform="translate(147.412109 0)"/>
      </g>
     </g>
    </g>
    <g id="xtick_7">
     <g id="line2d_45">
      <path d="M 718.937373 457.478125 
L 718.937373 22.318125 
" clip-path="url(#pc1022a93cd)" style="fill: none; stroke: #b0b0b0; stroke-opacity: 0.2; stroke-width: 0.8; stroke-linecap: square"/>
     </g>
     <g id="line2d_46">
      <g>
       <use xlink:href="#mf86f6de5de" x="718.937373" y="457.478125" style="stroke: #000000; stroke-width: 0.8"/>
      </g>
     </g>
     <g id="text_27">
      <!-- −5 -->
      <g transform="translate(711.566279 472.076563) scale(0.1 -0.1)">
       <use xlink:href="#DejaVuSans-2212"/>
       <use xlink:href="#DejaVuSans-35" transform="translate(83.789062 0)"/>
      </g>
     </g>
    </g>
    <g id="xtick_8">
     <g id="line2d_47">
      <path d="M 755.223346 457.478125 
L 755.223346 22.318125 
" clip-path="url(#pc1022a93cd)" style="fill: none; stroke: #b0b0b0; stroke-opacity: 0.2; stroke-width: 0.8; stroke-linecap: square"/>
     </g>
     <g id="line2d_48">
      <g>
       <use xlink:href="#mf86f6de5de" x="755.223346" y="457.478125" style="stroke: #000000; stroke-width: 0.8"/>
      </g>
     </g>
     <g id="text_28">
      <!-- 0 -->
      <g transform="translate(752.042096 472.076563) scale(0.1 -0.1)">
       <use xlink:href="#DejaVuSans-30"/>
      </g>
     </g>
    </g>
    <g id="xtick_9">
     <g id="line2d_49">
      <path d="M 791.509318 457.478125 
L 791.509318 22.318125 
" clip-path="url(#pc1022a93cd)" style="fill: none; stroke: #b0b0b0; stroke-opacity: 0.2; stroke-width: 0.8; stroke-linecap: square"/>
     </g>
     <g id="line2d_50">
      <g>
       <use xlink:href="#mf86f6de5de" x="791.509318" y="457.478125" style="stroke: #000000; stroke-width: 0.8"/>
      </g>
     </g>
     <g id="text_29">
      <!-- 5 -->
      <g transform="translate(788.328068 472.076563) scale(0.1 -0.1)">
       <use xlink:href="#DejaVuSans-35"/>
      </g>
     </g>
    </g>
    <g id="xtick_10">
     <g id="line2d_51">
      <path d="M 827.795291 457.478125 
L 827.795291 22.318125 
" clip-path="url(#pc1022a93cd)" style="fill: none; stroke: #b0b0b0; stroke-opacity: 0.2; stroke-width: 0.8; stroke-linecap: square"/>
     </g>
     <g id="line2d_52">
      <g>
       <use xlink:href="#mf86f6de5de" x="827.795291" y="457.478125" style="stroke: #000000; stroke-width: 0.8"/>
      </g>
     </g>
     <g id="text_30">
      <!-- 10 -->
      <g transform="translate(821.432791 472.076563) scale(0.1 -0.1)">
       <use xlink:href="#DejaVuSans-31"/>
       <use xlink:href="#DejaVuSans-30" transform="translate(63.623047 0)"/>
      </g>
     </g>
    </g>
    <g id="text_31">
     <!-- Actual - Expected -->
     <g transform="translate(711.247564 485.754688) scale(0.1 -0.1)">
      <defs>
       <path id="DejaVuSans-2d" d="M 313 2009 
L 1997 2009 
L 1997 1497 
L 313 1497 
L 313 2009 
z
" transform="scale(0.015625)"/>
      </defs>
      <use xlink:href="#DejaVuSans-41"/>
      <use xlink:href="#DejaVuSans-63" transform="translate(66.658203 0)"/>
      <use xlink:href="#DejaVuSans-74" transform="translate(121.638672 0)"/>
      <use xlink:href="#DejaVuSans-75" transform="translate(160.847656 0)"/>
      <use xlink:href="#DejaVuSans-61" transform="translate(224.226562 0)"/>
      <use xlink:href="#DejaVuSans-6c" transform="translate(285.505859 0)"/>
      <use xlink:href="#DejaVuSans-20" transform="translate(313.289062 0)"/>
      <use xlink:href="#DejaVuSans-2d" transform="translate(345.076172 0)"/>
      <use xlink:href="#DejaVuSans-20" transform="translate(381.160156 0)"/>
      <use xlink:href="#DejaVuSans-45" transform="translate(412.947266 0)"/>
      <use xlink:href="#DejaVuSans-78" transform="translate(476.130859 0)"/>
      <use xlink:href="#DejaVuSans-70" transform="translate(535.310547 0)"/>
      <use xlink:href="#DejaVuSans-65" transform="translate(598.787109 0)"/>
      <use xlink:href="#DejaVuSans-63" transform="translate(660.310547 0)"/>
      <use xlink:href="#DejaVuSans-74" transform="translate(715.291016 0)"/>
      <use xlink:href="#DejaVuSans-65" transform="translate(754.5 0)"/>
      <use xlink:href="#DejaVuSans-64" transform="translate(816.023438 0)"/>
     </g>
    </g>
   </g>
   <g id="matplotlib.axis_4">
    <g id="ytick_17">
     <g id="line2d_53">
      <path d="M 660.879816 50.917233 
L 849.566875 50.917233 
" clip-path="url(#pc1022a93cd)" style="fill: none; stroke: #b0b0b0; stroke-opacity: 0.3; stroke-width: 0.8; stroke-linecap: square"/>
     </g>
    </g>
    <g id="ytick_18">
     <g id="line2d_54">
      <path d="M 660.879816 76.114686 
L 849.566875 76.114686 
" clip-path="url(#pc1022a93cd)" style="fill: none; stroke: #b0b0b0; stroke-opacity: 0.3; stroke-width: 0.8; stroke-linecap: square"/>
     </g>
    </g>
    <g id="ytick_19">
     <g id="line2d_55">
      <path d="M 660.879816 101.312138 
L 849.566875 101.312138 
" clip-path="url(#pc1022a93cd)" style="fill: none; stroke: #b0b0b0; stroke-opacity: 0.3; stroke-width: 0.8; stroke-linecap: square"/>
     </g>
    </g>
    <g id="ytick_20">
     <g id="line2d_56">
      <path d="M 660.879816 126.50959 
L 849.566875 126.50959 
" clip-path="url(#pc1022a93cd)" style="fill: none; stroke: #b0b0b0; stroke-opacity: 0.3; stroke-width: 0.8; stroke-linecap: square"/>
     </g>
    </g>
    <g id="ytick_21">
     <g id="line2d_57">
      <path d="M 660.879816 151.707042 
L 849.566875 151.707042 
" clip-path="url(#pc1022a93cd)" style="fill: none; stroke: #b0b0b0; stroke-opacity: 0.3; stroke-width: 0.8; stroke-linecap: square"/>
     </g>
    </g>
    <g id="ytick_22">
     <g id="line2d_58">
      <path d="M 660.879816 176.904494 
L 849.566875 176.904494 
" clip-path="url(#pc1022a93cd)" style="fill: none; stroke: #b0b0b0; stroke-opacity: 0.3; stroke-width: 0.8; stroke-linecap: square"/>
     </g>
    </g>
    <g id="ytick_23">
     <g id="line2d_59">
      <path d="M 660.879816 202.101947 
L 849.566875 202.101947 
" clip-path="url(#pc1022a93cd)" style="fill: none; stroke: #b0b0b0; stroke-opacity: 0.3; stroke-width: 0.8; stroke-linecap: square"/>
     </g>
    </g>
    <g id="ytick_24">
     <g id="line2d_60">
      <path d="M 660.879816 227.299399 
L 849.566875 227.299399 
" clip-path="url(#pc1022a93cd)" style="fill: none; stroke: #b0b0b0; stroke-opacity: 0.3; stroke-width: 0.8; stroke-linecap: square"/>
     </g>
    </g>
    <g id="ytick_25">
     <g id="line2d_61">
      <path d="M 660.879816 252.496851 
L 849.566875 252.496851 
" clip-path="url(#pc1022a93cd)" style="fill: none; stroke: #b0b0b0; stroke-opacity: 0.3; stroke-width: 0.8; stroke-linecap: square"/>
     </g>
    </g>
    <g id="ytick_26">
     <g id="line2d_62">
      <path d="M 660.879816 277.694303 
L 849.566875 277.694303 
" clip-path="url(#pc1022a93cd)" style="fill: none; stroke: #b0b0b0; stroke-opacity: 0.3; stroke-width: 0.8; stroke-linecap: square"/>
     </g>
    </g>
    <g id="ytick_27">
     <g id="line2d_63">
      <path d="M 660.879816 302.891756 
L 849.566875 302.891756 
" clip-path="url(#pc1022a93cd)" style="fill: none; stroke: #b0b0b0; stroke-opacity: 0.3; stroke-width: 0.8; stroke-linecap: square"/>
     </g>
    </g>
    <g id="ytick_28">
     <g id="line2d_64">
      <path d="M 660.879816 328.089208 
L 849.566875 328.089208 
" clip-path="url(#pc1022a93cd)" style="fill: none; stroke: #b0b0b0; stroke-opacity: 0.3; stroke-width: 0.8; stroke-linecap: square"/>
     </g>
    </g>
    <g id="ytick_29">
     <g id="line2d_65">
      <path d="M 660.879816 353.28666 
L 849.566875 353.28666 
" clip-path="url(#pc1022a93cd)" style="fill: none; stroke: #b0b0b0; stroke-opacity: 0.3; stroke-width: 0.8; stroke-linecap: square"/>
     </g>
    </g>
    <g id="ytick_30">
     <g id="line2d_66">
      <path d="M 660.879816 378.484112 
L 849.566875 378.484112 
" clip-path="url(#pc1022a93cd)" style="fill: none; stroke: #b0b0b0; stroke-opacity: 0.3; stroke-width: 0.8; stroke-linecap: square"/>
     </g>
    </g>
    <g id="ytick_31">
     <g id="line2d_67">
      <path d="M 660.879816 403.681564 
L 849.566875 403.681564 
" clip-path="url(#pc1022a93cd)" style="fill: none; stroke: #b0b0b0; stroke-opacity: 0.3; stroke-width: 0.8; stroke-linecap: square"/>
     </g>
    </g>
    <g id="ytick_32">
     <g id="line2d_68">
      <path d="M 660.879816 428.879017 
L 849.566875 428.879017 
" clip-path="url(#pc1022a93cd)" style="fill: none; stroke: #b0b0b0; stroke-opacity: 0.3; stroke-width: 0.8; stroke-linecap: square"/>
     </g>
    </g>
   </g>
   <g id="patch_43">
    <path d="M 755.223346 42.098125 
L 738.160629 42.098125 
L 738.160629 59.736342 
L 755.223346 59.736342 
z
" clip-path="url(#pc1022a93cd)" style="fill: #d62728; opacity: 0.75"/>
   </g>
   <g id="patch_44">
    <path d="M 755.223346 67.295577 
L 752.775675 67.295577 
L 752.775675 84.933794 
L 755.223346 84.933794 
z
" clip-path="url(#pc1022a93cd)" style="fill: #d62728; opacity: 0.75"/>
   </g>
   <g id="patch_45">
    <path d="M 755.223346 92.493029 
L 797.167245 92.493029 
L 797.167245 110.131246 
L 755.223346 110.131246 
z
" clip-path="url(#pc1022a93cd)" style="fill: #2ca02c; opacity: 0.75"/>
   </g>
   <g id="patch_46">
    <path d="M 755.223346 117.690482 
L 713.096637 117.690482 
L 713.096637 135.328698 
L 755.223346 135.328698 
z
" clip-path="url(#pc1022a93cd)" style="fill: #d62728; opacity: 0.75"/>
   </g>
   <g id="patch_47">
    <path d="M 755.223346 142.887934 
L 715.81863 142.887934 
L 715.81863 160.52615 
L 755.223346 160.52615 
z
" clip-path="url(#pc1022a93cd)" style="fill: #d62728; opacity: 0.75"/>
   </g>
   <g id="patch_48">
    <path d="M 755.223346 168.085386 
L 812.437906 168.085386 
L 812.437906 185.723603 
L 755.223346 185.723603 
z
" clip-path="url(#pc1022a93cd)" style="fill: #2ca02c; opacity: 0.75"/>
   </g>
   <g id="patch_49">
    <path d="M 755.223346 193.282838 
L 718.491418 193.282838 
L 718.491418 210.921055 
L 755.223346 210.921055 
z
" clip-path="url(#pc1022a93cd)" style="fill: #d62728; opacity: 0.75"/>
   </g>
   <g id="patch_50">
    <path d="M 755.223346 218.480291 
L 752.948251 218.480291 
L 752.948251 236.118507 
L 755.223346 236.118507 
z
" clip-path="url(#pc1022a93cd)" style="fill: #d62728; opacity: 0.75"/>
   </g>
   <g id="patch_51">
    <path d="M 755.223346 243.677743 
L 840.12414 243.677743 
L 840.12414 261.315959 
L 755.223346 261.315959 
z
" clip-path="url(#pc1022a93cd)" style="fill: #2ca02c; opacity: 0.75"/>
   </g>
   <g id="patch_52">
    <path d="M 755.223346 268.875195 
L 732.847201 268.875195 
L 732.847201 286.513412 
L 755.223346 286.513412 
z
" clip-path="url(#pc1022a93cd)" style="fill: #d62728; opacity: 0.75"/>
   </g>
   <g id="patch_53">
    <path d="M 755.223346 294.072647 
L 712.93814 294.072647 
L 712.93814 311.710864 
L 755.223346 311.710864 
z
" clip-path="url(#pc1022a93cd)" style="fill: #d62728; opacity: 0.75"/>
   </g>
   <g id="patch_54">
    <path d="M 755.223346 319.2701 
L 765.897373 319.2701 
L 765.897373 336.908316 
L 755.223346 336.908316 
z
" clip-path="url(#pc1022a93cd)" style="fill: #2ca02c; opacity: 0.75"/>
   </g>
   <g id="patch_55">
    <path d="M 755.223346 344.467552 
L 732.677601 344.467552 
L 732.677601 362.105768 
L 755.223346 362.105768 
z
" clip-path="url(#pc1022a93cd)" style="fill: #d62728; opacity: 0.75"/>
   </g>
   <g id="patch_56">
    <path d="M 755.223346 369.665004 
L 778.817937 369.665004 
L 778.817937 387.303221 
L 755.223346 387.303221 
z
" clip-path="url(#pc1022a93cd)" style="fill: #2ca02c; opacity: 0.75"/>
   </g>
   <g id="patch_57">
    <path d="M 755.223346 394.862456 
L 739.023727 394.862456 
L 739.023727 412.500673 
L 755.223346 412.500673 
z
" clip-path="url(#pc1022a93cd)" style="fill: #d62728; opacity: 0.75"/>
   </g>
   <g id="patch_58">
    <path d="M 755.223346 420.059908 
L 738.560899 420.059908 
L 738.560899 437.698125 
L 755.223346 437.698125 
z
" clip-path="url(#pc1022a93cd)" style="fill: #d62728; opacity: 0.75"/>
   </g>
   <g id="line2d_69">
    <path d="M 755.223346 457.478125 
L 755.223346 22.318125 
" clip-path="url(#pc1022a93cd)" style="fill: none; stroke: #000000; stroke-width: 0.5; stroke-linecap: square"/>
   </g>
   <g id="patch_59">
    <path d="M 660.879816 457.478125 
L 660.879816 22.318125 
" style="fill: none; stroke: #000000; stroke-width: 0.8; stroke-linejoin: miter; stroke-linecap: square"/>
   </g>
   <g id="patch_60">
    <path d="M 849.566875 457.478125 
L 849.566875 22.318125 
" style="fill: none; stroke: #000000; stroke-width: 0.8; stroke-linejoin: miter; stroke-linecap: square"/>
   </g>
   <g id="patch_61">
    <path d="M 660.879816 457.478125 
L 849.566875 457.478125 
" style="fill: none; stroke: #000000; stroke-width: 0.8; stroke-linejoin: miter; stroke-linecap: square"/>
   </g>
   <g id="patch_62">
    <path d="M 660.879816 22.318125 
L 849.566875 22.318125 
" style="fill: none; stroke: #000000; stroke-width: 0.8; stroke-linejoin: miter; stroke-linecap: square"/>
   </g>
   <g id="text_32">
    <!-- Error -->
    <g transform="translate(740.601158 16.318125) scale(0.12 -0.12)">
     <defs>
      <path id="DejaVuSans-72" d="M 2631 2963 
Q 2534 3019 2420 3045 
Q 2306 3072 2169 3072 
Q 1681 3072 1420 2755 
Q 1159 2438 1159 1844 
L 1159 0 
L 581 0 
L 581 3500 
L 1159 3500 
L 1159 2956 
Q 1341 3275 1631 3429 
Q 1922 3584 2338 3584 
Q 2397 3584 2469 3576 
Q 2541 3569 2628 3553 
L 2631 2963 
z
" transform="scale(0.015625)"/>
     </defs>
     <use xlink:href="#DejaVuSans-45"/>
     <use xlink:href="#DejaVuSans-72" transform="translate(63.183594 0)"/>
     <use xlink:href="#DejaVuSans-72" transform="translate(102.546875 0)"/>
     <use xlink:href="#DejaVuSans-6f" transform="translate(141.410156 0)"/>
     <use xlink:href="#DejaVuSans-72" transform="translate(202.591797 0)"/>
    </g>
   </g>
  </g>
 </g>
 <defs>
  <clipPath id="p7ab81cf7f5">
   <rect x="36.846875" y="22.318125" width="613.232941" height="435.16"/>
  </clipPath>
  <clipPath id="pc1022a93cd">
   <rect x="660.879816" y="22.318125" width="188.687059" height="435.16"/>
  </clipPath>
 </defs>
</svg>
